<mxfile host="app.diagrams.net" agent="Mozilla/5.0 (X11; Ubuntu; Linux x86_64; rv:131.0) Gecko/20100101 Firefox/131.0" version="25.0.3">
  <diagram name="Page-1" id="7e0a89b8-554c-2b80-1dc8-d5c74ca68de4">
    <mxGraphModel dx="529" dy="344" grid="1" gridSize="10" guides="1" tooltips="1" connect="1" arrows="1" fold="1" page="1" pageScale="1" pageWidth="1100" pageHeight="850" background="none" math="0" shadow="0">
      <root>
        <mxCell id="0" />
        <mxCell id="1" parent="0" />
        <mxCell id="XvLy9n6LZG0TzpgyQY97-52" style="edgeStyle=orthogonalEdgeStyle;rounded=0;orthogonalLoop=1;jettySize=auto;html=1;exitX=1;exitY=1;exitDx=0;exitDy=0;exitPerimeter=0;endArrow=none;endFill=0;" edge="1" parent="1">
          <mxGeometry relative="1" as="geometry">
            <mxPoint x="100" y="157.14285714285717" as="sourcePoint" />
            <mxPoint x="100" y="170" as="targetPoint" />
          </mxGeometry>
        </mxCell>
        <mxCell id="XvLy9n6LZG0TzpgyQY97-16" value="" style="verticalLabelPosition=bottom;shadow=0;dashed=0;align=center;html=1;verticalAlign=top;shape=mxgraph.electrical.transistors.pmos;pointerEvents=1;flipV=0;flipH=1;" vertex="1" parent="1">
          <mxGeometry x="100" y="60" width="60" height="100" as="geometry" />
        </mxCell>
        <mxCell id="XvLy9n6LZG0TzpgyQY97-1" value="" style="verticalLabelPosition=bottom;shadow=0;dashed=0;align=center;html=1;verticalAlign=top;shape=mxgraph.electrical.transistors.pmos;pointerEvents=1;" vertex="1" parent="1">
          <mxGeometry x="180" y="160" width="60" height="100" as="geometry" />
        </mxCell>
        <mxCell id="XvLy9n6LZG0TzpgyQY97-2" value="" style="verticalLabelPosition=bottom;shadow=0;dashed=0;align=center;html=1;verticalAlign=top;shape=mxgraph.electrical.transistors.pmos;pointerEvents=1;flipV=0;flipH=1;" vertex="1" parent="1">
          <mxGeometry x="360" y="160" width="60" height="100" as="geometry" />
        </mxCell>
        <mxCell id="XvLy9n6LZG0TzpgyQY97-3" value="" style="verticalLabelPosition=bottom;shadow=0;dashed=0;align=center;html=1;verticalAlign=top;shape=mxgraph.electrical.transistors.pmos;pointerEvents=1;flipV=0;flipH=1;" vertex="1" parent="1">
          <mxGeometry x="300" y="60" width="60" height="100" as="geometry" />
        </mxCell>
        <mxCell id="XvLy9n6LZG0TzpgyQY97-8" style="edgeStyle=orthogonalEdgeStyle;rounded=0;orthogonalLoop=1;jettySize=auto;html=1;exitX=1;exitY=1;exitDx=0;exitDy=0;exitPerimeter=0;entryX=1;entryY=0;entryDx=0;entryDy=0;entryPerimeter=0;endArrow=none;endFill=0;" edge="1" parent="1" target="XvLy9n6LZG0TzpgyQY97-2">
          <mxGeometry relative="1" as="geometry">
            <mxPoint x="359.9999999999998" y="157.1428571428571" as="sourcePoint" />
          </mxGeometry>
        </mxCell>
        <mxCell id="XvLy9n6LZG0TzpgyQY97-11" value="" style="verticalLabelPosition=bottom;shadow=0;dashed=0;align=center;html=1;verticalAlign=top;shape=mxgraph.electrical.transistors.nmos;pointerEvents=1;" vertex="1" parent="1">
          <mxGeometry x="300" y="240" width="60" height="100" as="geometry" />
        </mxCell>
        <mxCell id="XvLy9n6LZG0TzpgyQY97-15" style="edgeStyle=orthogonalEdgeStyle;rounded=0;orthogonalLoop=1;jettySize=auto;html=1;exitX=1;exitY=0;exitDx=0;exitDy=0;exitPerimeter=0;endArrow=none;endFill=0;" edge="1" parent="1" source="XvLy9n6LZG0TzpgyQY97-12">
          <mxGeometry relative="1" as="geometry">
            <mxPoint x="310" y="290" as="targetPoint" />
            <Array as="points">
              <mxPoint x="240" y="273" />
              <mxPoint x="240" y="250" />
              <mxPoint x="290" y="250" />
              <mxPoint x="290" y="290" />
            </Array>
          </mxGeometry>
        </mxCell>
        <mxCell id="XvLy9n6LZG0TzpgyQY97-12" value="" style="verticalLabelPosition=bottom;shadow=0;dashed=0;align=center;html=1;verticalAlign=top;shape=mxgraph.electrical.transistors.nmos;pointerEvents=1;flipH=1;" vertex="1" parent="1">
          <mxGeometry x="240" y="240" width="60" height="100" as="geometry" />
        </mxCell>
        <mxCell id="XvLy9n6LZG0TzpgyQY97-18" value="" style="endArrow=none;html=1;rounded=0;" edge="1" parent="1">
          <mxGeometry width="50" height="50" relative="1" as="geometry">
            <mxPoint x="80" y="63" as="sourcePoint" />
            <mxPoint x="570" y="63" as="targetPoint" />
          </mxGeometry>
        </mxCell>
        <mxCell id="XvLy9n6LZG0TzpgyQY97-20" value="" style="verticalLabelPosition=bottom;shadow=0;dashed=0;align=center;html=1;verticalAlign=top;shape=mxgraph.electrical.transistors.pmos;pointerEvents=1;" vertex="1" parent="1">
          <mxGeometry x="460" y="60" width="60" height="100" as="geometry" />
        </mxCell>
        <mxCell id="XvLy9n6LZG0TzpgyQY97-21" value="" style="ellipse;whiteSpace=wrap;html=1;aspect=fixed;" vertex="1" parent="1">
          <mxGeometry x="95" y="170" width="10" height="10" as="geometry" />
        </mxCell>
        <mxCell id="XvLy9n6LZG0TzpgyQY97-23" value="Ibias" style="text;html=1;align=center;verticalAlign=middle;whiteSpace=wrap;rounded=0;" vertex="1" parent="1">
          <mxGeometry x="60" y="170" width="30" height="12.86" as="geometry" />
        </mxCell>
        <mxCell id="XvLy9n6LZG0TzpgyQY97-24" value="Vin-" style="text;html=1;align=center;verticalAlign=middle;whiteSpace=wrap;rounded=0;" vertex="1" parent="1">
          <mxGeometry x="140" y="205.43" width="30" height="12.86" as="geometry" />
        </mxCell>
        <mxCell id="XvLy9n6LZG0TzpgyQY97-25" value="" style="ellipse;whiteSpace=wrap;html=1;aspect=fixed;" vertex="1" parent="1">
          <mxGeometry x="170" y="205.43" width="10" height="10" as="geometry" />
        </mxCell>
        <mxCell id="XvLy9n6LZG0TzpgyQY97-26" value="" style="ellipse;whiteSpace=wrap;html=1;aspect=fixed;" vertex="1" parent="1">
          <mxGeometry x="420" y="205" width="10" height="10" as="geometry" />
        </mxCell>
        <mxCell id="XvLy9n6LZG0TzpgyQY97-27" value="Vin+" style="text;html=1;align=center;verticalAlign=middle;whiteSpace=wrap;rounded=0;" vertex="1" parent="1">
          <mxGeometry x="430" y="205.42999999999998" width="30" height="12.86" as="geometry" />
        </mxCell>
        <mxCell id="XvLy9n6LZG0TzpgyQY97-37" style="edgeStyle=orthogonalEdgeStyle;rounded=0;orthogonalLoop=1;jettySize=auto;html=1;exitX=1;exitY=1;exitDx=0;exitDy=0;exitPerimeter=0;endArrow=none;endFill=0;" edge="1" parent="1">
          <mxGeometry relative="1" as="geometry">
            <mxPoint x="520" y="337" as="targetPoint" />
            <mxPoint x="520" y="303.5728571428571" as="sourcePoint" />
            <Array as="points">
              <mxPoint x="520" y="317" />
              <mxPoint x="520" y="317" />
            </Array>
          </mxGeometry>
        </mxCell>
        <mxCell id="XvLy9n6LZG0TzpgyQY97-28" value="" style="verticalLabelPosition=bottom;shadow=0;dashed=0;align=center;html=1;verticalAlign=top;shape=mxgraph.electrical.transistors.nmos;pointerEvents=1;" vertex="1" parent="1">
          <mxGeometry x="460" y="209.43" width="60" height="100" as="geometry" />
        </mxCell>
        <mxCell id="XvLy9n6LZG0TzpgyQY97-30" value="Vout" style="text;html=1;align=center;verticalAlign=middle;whiteSpace=wrap;rounded=0;" vertex="1" parent="1">
          <mxGeometry x="560" y="194.99999999999997" width="30" height="12.86" as="geometry" />
        </mxCell>
        <mxCell id="XvLy9n6LZG0TzpgyQY97-31" value="" style="ellipse;whiteSpace=wrap;html=1;aspect=fixed;" vertex="1" parent="1">
          <mxGeometry x="550" y="195" width="10" height="10" as="geometry" />
        </mxCell>
        <mxCell id="XvLy9n6LZG0TzpgyQY97-32" style="edgeStyle=orthogonalEdgeStyle;rounded=0;orthogonalLoop=1;jettySize=auto;html=1;exitX=1;exitY=1;exitDx=0;exitDy=0;exitPerimeter=0;entryX=1;entryY=0;entryDx=0;entryDy=0;entryPerimeter=0;endArrow=none;endFill=0;" edge="1" parent="1" source="XvLy9n6LZG0TzpgyQY97-20" target="XvLy9n6LZG0TzpgyQY97-28">
          <mxGeometry relative="1" as="geometry" />
        </mxCell>
        <mxCell id="XvLy9n6LZG0TzpgyQY97-33" style="edgeStyle=orthogonalEdgeStyle;rounded=0;orthogonalLoop=1;jettySize=auto;html=1;entryX=1;entryY=1;entryDx=0;entryDy=0;entryPerimeter=0;endArrow=none;endFill=0;" edge="1" parent="1" source="XvLy9n6LZG0TzpgyQY97-31" target="XvLy9n6LZG0TzpgyQY97-20">
          <mxGeometry relative="1" as="geometry" />
        </mxCell>
        <mxCell id="XvLy9n6LZG0TzpgyQY97-34" style="edgeStyle=orthogonalEdgeStyle;rounded=0;orthogonalLoop=1;jettySize=auto;html=1;exitX=0;exitY=0.5;exitDx=0;exitDy=0;exitPerimeter=0;entryX=1;entryY=1;entryDx=0;entryDy=0;entryPerimeter=0;endArrow=none;endFill=0;" edge="1" parent="1" source="XvLy9n6LZG0TzpgyQY97-28" target="XvLy9n6LZG0TzpgyQY97-2">
          <mxGeometry relative="1" as="geometry">
            <Array as="points">
              <mxPoint x="440" y="259" />
              <mxPoint x="360" y="260" />
            </Array>
          </mxGeometry>
        </mxCell>
        <mxCell id="XvLy9n6LZG0TzpgyQY97-35" value="" style="endArrow=none;html=1;rounded=0;" edge="1" parent="1">
          <mxGeometry width="50" height="50" relative="1" as="geometry">
            <mxPoint x="87" y="337.31" as="sourcePoint" />
            <mxPoint x="567" y="337" as="targetPoint" />
          </mxGeometry>
        </mxCell>
        <mxCell id="XvLy9n6LZG0TzpgyQY97-38" value="&lt;font style=&quot;font-size: 20px;&quot;&gt;V&lt;sub&gt;DD&lt;/sub&gt;&lt;/font&gt;" style="text;html=1;align=center;verticalAlign=middle;whiteSpace=wrap;rounded=0;" vertex="1" parent="1">
          <mxGeometry x="290" y="30" width="60" height="30" as="geometry" />
        </mxCell>
        <mxCell id="XvLy9n6LZG0TzpgyQY97-39" value="&lt;font style=&quot;font-size: 20px;&quot;&gt;V&lt;sub&gt;SS&lt;/sub&gt;&lt;/font&gt;" style="text;html=1;align=center;verticalAlign=middle;whiteSpace=wrap;rounded=0;" vertex="1" parent="1">
          <mxGeometry x="290" y="340" width="60" height="30" as="geometry" />
        </mxCell>
        <mxCell id="XvLy9n6LZG0TzpgyQY97-45" style="edgeStyle=orthogonalEdgeStyle;rounded=0;orthogonalLoop=1;jettySize=auto;html=1;exitX=1;exitY=1;exitDx=0;exitDy=0;exitPerimeter=0;entryX=1;entryY=0;entryDx=0;entryDy=0;entryPerimeter=0;endArrow=none;endFill=0;" edge="1" parent="1" source="XvLy9n6LZG0TzpgyQY97-3" target="XvLy9n6LZG0TzpgyQY97-1">
          <mxGeometry relative="1" as="geometry">
            <Array as="points">
              <mxPoint x="240" y="157" />
            </Array>
          </mxGeometry>
        </mxCell>
        <mxCell id="XvLy9n6LZG0TzpgyQY97-46" style="edgeStyle=orthogonalEdgeStyle;rounded=0;orthogonalLoop=1;jettySize=auto;html=1;entryX=0;entryY=0.5;entryDx=0;entryDy=0;entryPerimeter=0;endArrow=none;endFill=0;exitX=0.065;exitY=0.499;exitDx=0;exitDy=0;exitPerimeter=0;" edge="1" parent="1">
          <mxGeometry relative="1" as="geometry">
            <mxPoint x="159.99999999999997" y="109.94571428571429" as="sourcePoint" />
            <mxPoint x="363.9" y="110.04" as="targetPoint" />
            <Array as="points">
              <mxPoint x="313.9" y="110.04" />
            </Array>
          </mxGeometry>
        </mxCell>
        <mxCell id="XvLy9n6LZG0TzpgyQY97-47" style="edgeStyle=orthogonalEdgeStyle;rounded=0;orthogonalLoop=1;jettySize=auto;html=1;exitX=1;exitY=1;exitDx=0;exitDy=0;exitPerimeter=0;entryX=1;entryY=0;entryDx=0;entryDy=0;entryPerimeter=0;endArrow=none;endFill=0;" edge="1" parent="1" source="XvLy9n6LZG0TzpgyQY97-3" target="XvLy9n6LZG0TzpgyQY97-2">
          <mxGeometry relative="1" as="geometry">
            <Array as="points">
              <mxPoint x="360" y="157" />
            </Array>
          </mxGeometry>
        </mxCell>
        <mxCell id="XvLy9n6LZG0TzpgyQY97-48" style="edgeStyle=orthogonalEdgeStyle;rounded=0;orthogonalLoop=1;jettySize=auto;html=1;entryX=0;entryY=0.5;entryDx=0;entryDy=0;entryPerimeter=0;endArrow=none;endFill=0;" edge="1" parent="1" source="XvLy9n6LZG0TzpgyQY97-3" target="XvLy9n6LZG0TzpgyQY97-20">
          <mxGeometry relative="1" as="geometry" />
        </mxCell>
        <mxCell id="XvLy9n6LZG0TzpgyQY97-49" value="" style="rounded=0;whiteSpace=wrap;html=1;fillColor=none;dashed=1;" vertex="1" parent="1">
          <mxGeometry x="480" y="40" width="120" height="320" as="geometry" />
        </mxCell>
        <mxCell id="XvLy9n6LZG0TzpgyQY97-51" style="edgeStyle=orthogonalEdgeStyle;rounded=0;orthogonalLoop=1;jettySize=auto;html=1;exitX=0;exitY=0.5;exitDx=0;exitDy=0;exitPerimeter=0;entryX=1;entryY=1;entryDx=0;entryDy=0;entryPerimeter=0;endArrow=none;endFill=0;" edge="1" parent="1" source="XvLy9n6LZG0TzpgyQY97-16" target="XvLy9n6LZG0TzpgyQY97-16">
          <mxGeometry relative="1" as="geometry">
            <Array as="points">
              <mxPoint x="160" y="157" />
            </Array>
          </mxGeometry>
        </mxCell>
      </root>
    </mxGraphModel>
  </diagram>
</mxfile>
